
<svg width="12px" height="10px" viewBox="0 0 12 10" version="1.1" xmlns="http://www.w3.org/2000/svg" xmlns:xlink="http://www.w3.org/1999/xlink">
    <!-- Generator: Sketch 43.2 (39069) - http://www.bohemiancoding.com/sketch -->
    <desc>Created with Sketch.</desc>
    <defs></defs>
    <g id="Page-1" stroke="none" stroke-width="1" fill="none" fill-rule="evenodd">
        <g id="Desktop-HD" transform="translate(-1021.000000, -2648.000000)" fill="#B76AC4">
            <g id="Group-4" transform="translate(-368.000000, -259.000000)">
                <g id="Click-Me-Copy-2" transform="translate(1236.000000, 2899.000000)">
                    <path d="M160.692813,13.8684718 L153.995577,13.8684718 C153.445735,13.8684718 153,13.424607 153,12.8684718 C153,12.3161871 153.444837,11.8684718 153.995577,11.8684718 L161.011015,11.8684718 L158.575356,9.75118558 C158.161367,9.39131114 158.116965,8.76458622 158.481823,8.34486568 C158.844154,7.92805109 159.475259,7.8834335 159.887474,8.24176642 L164.501438,12.2526242 C164.915426,12.6124986 164.959828,13.2392235 164.594971,13.6589441 C164.396197,13.8876072 164.116533,14.0042545 163.836496,14.0038085 L159.191888,17.5037716 C158.748908,17.8375807 158.122678,17.7537002 157.787987,17.3095509 C157.455614,16.8684767 157.537858,16.245901 157.988258,15.9065006 L160.692813,13.8684718 Z" id="Combined-Shape"></path>
                </g>
            </g>
        </g>
    </g>
</svg>
