<svg width="50px" height="50px" viewBox="0 0 50 50" version="1.1" xmlns="http://www.w3.org/2000/svg" xmlns:xlink="http://www.w3.org/1999/xlink">
    <!-- Generator: Sketch 43.2 (39069) - http://www.bohemiancoding.com/sketch -->
    <desc>Created with Sketch.</desc>
    <defs></defs>
    <g id="Page-1" stroke="none" stroke-width="1" fill="none" fill-rule="evenodd">
        <g id="Desktop-HD" transform="translate(-309.000000, -3274.000000)">
            <g id="Btn_icon-/-Social-/-Instagram" transform="translate(309.000000, 3274.000000)">
                <g>
                    <rect id="Base_buttons" fill="#E05139" x="0" y="0" width="50" height="50" rx="3"></rect>
                    <path d="M33.0833333,24.9166667 L33.0833333,22 L31,22 L31,24.9166667 L28,24.9166667 L28,27 L31,27 L31,30 L33.0833333,30 L33.0833333,27 L36,27 L36,24.9166667 L33.0833333,24.9166667 L33.0833333,24.9166667 L33.0833333,24.9166667 Z M20.5913742,24.2128713 L20.5913742,26.7871287 C20.5913742,26.7871287 23.1237671,26.7837822 24.154893,26.7837822 C23.5965188,28.4526089 22.7282847,29.3613861 20.5913742,29.3613861 C18.4288161,29.3613861 16.7409675,27.6325792 16.7409675,25.5 C16.7409675,23.3674208 18.4288161,21.6386139 20.5913742,21.6386139 C21.7347492,21.6386139 22.4731789,22.0349208 23.1505242,22.5872921 C23.6927137,22.0526188 23.6474225,21.9764208 25.026847,20.691802 C23.8558665,19.6407327 22.2995191,19 20.5913742,19 C16.9510431,19 14,21.9101337 14,25.5 C14,29.089802 16.9510431,32 20.5913742,32 C26.0326515,32 27.3626081,27.3277228 26.9217039,24.2128713 L20.5913742,24.2128713 L20.5913742,24.2128713 L20.5913742,24.2128713 Z" id="icon" fill="#FFFFFF"></path>
                </g>
            </g>
        </g>
    </g>
</svg>
