



<svg width="50px" height="50px" viewBox="0 0 50 50" version="1.1" xmlns="http://www.w3.org/2000/svg" xmlns:xlink="http://www.w3.org/1999/xlink">
    <!-- Generator: Sketch 43.2 (39069) - http://www.bohemiancoding.com/sketch -->
    <desc>Created with Sketch.</desc>
    <defs></defs>
    <g id="Page-1" stroke="none" stroke-width="1" fill="none" fill-rule="evenodd">
        <g id="Desktop-HD" transform="translate(-400.000000, -3274.000000)">
            <g id="Btn_icon-/-Social-/-google" transform="translate(400.000000, 3274.000000)">
                <g>
                    <rect id="Base_buttons" fill="#3F729B" x="0" y="0" width="50" height="50" rx="3"></rect>
                    <g id="instagram" transform="translate(14.000000, 14.000000)" fill-rule="nonzero">
                        <g id="Layer_1">
                            <g id="Group">
                                <path d="M11.4731404,0 C17.8091678,0 22.9463596,5.13711301 22.9463596,11.4732192 C22.9463596,17.8093253 17.8092466,22.9463596 11.4732192,22.9463596 C5.13719178,22.9463596 0,17.8092466 0,11.4732192 C0,5.13719178 5.13640411,0 11.4731404,0 Z" id="Shape" fill="#3F729B"></path>
                                <path d="M15.4328425,5.01809589 L7.51280822,5.01809589 C6.13674658,5.01809589 5.01809589,6.13745548 5.01809589,7.51280822 L5.01809589,15.4336301 C5.01809589,16.8096918 6.13745548,17.9283425 7.51280822,17.9283425 L15.4336301,17.9283425 C16.8096918,17.9283425 17.9283425,16.8089829 17.9283425,15.4336301 L17.9283425,7.51280822 C17.9282637,6.13745548 16.8089041,5.01809589 15.4328425,5.01809589 Z M16.2187808,6.46158219 L16.5013185,6.46087329 L16.5013185,8.60349658 L14.3429418,8.61066438 L14.335774,6.4680411 C14.335774,6.4680411 16.2187808,6.46158219 16.2187808,6.46158219 Z M11.4732192,9.31334589 C13.2637534,9.31334589 13.6330137,10.9941575 13.6330137,11.4738493 C13.6330137,12.6634692 12.6635479,13.6329349 11.4732192,13.6329349 C10.2821815,13.6329349 9.31342466,12.6634692 9.31342466,11.4738493 C9.31263699,10.9941575 9.68268493,9.31334589 11.4732192,9.31334589 Z M16.5135274,15.2772774 C16.5135274,15.9592432 15.9592432,16.5142363 15.2758596,16.5142363 L7.64616096,16.5142363 C6.9634863,16.5142363 6.40849315,15.9599521 6.40849315,15.2772774 L6.40849315,10.0361918 L8.20115411,10.0361918 C8.03479795,10.4456233 7.94082877,11.0049486 7.94082877,11.4739281 C7.94082877,13.4201062 9.52412671,15.004113 11.4710137,15.004113 C13.4179007,15.004113 15.000411,13.4201062 15.000411,11.4739281 C15.000411,11.0049486 14.9064418,10.4456233 14.7407945,10.0361918 L16.5119521,10.0361918 L16.5119521,15.2772774 L16.5135274,15.2772774 Z" id="Shape" fill="#FFFFFF"></path>
                            </g>
                        </g>
                    </g>
                </g>
            </g>
        </g>
    </g>
</svg>
