<?xml version="1.0" encoding="iso-8859-1"?>
<!-- Generator: Adobe Illustrator 22.0.0, SVG Export Plug-In . SVG Version: 6.00 Build 0)  -->
<svg xmlns="http://www.w3.org/2000/svg" xmlns:xlink="http://www.w3.org/1999/xlink" version="1.1" x="0px" y="0px" viewBox="0 0 64 64" style="enable-background:new 0 0 64 64;" xml:space="preserve" width="512" height="512">
<g id="color">
	<path style="fill:#25b47d;" d="M36,40H16c-1.1045694,0-2-0.8954315-2-2V26c0-1.1045704,0.8954306-2,2-2h20   c1.1045685,0,2,0.8954296,2,2v12C38,39.1045685,37.1045685,40,36,40z"/>
	<path style="fill:#FFB398;" d="M49,32v29H34V48h-1c-2.0499878,0-4.039978-0.3900146-5.9000244-1.1300049   C25.9500122,46.4199829,25.460022,45.0700073,26.0800171,44c0.3599854-0.6300049,1.0199585-1.0100098,1.7099609-1.0100098   c0.2300415,0,0.4700317,0.0499878,0.7000122,0.1400146c4.5300293,1.8299561,10.0100098,0.7999878,13.5599976-3.25   c3.6799927-4.1900024,3.9199829-10.5599976,0.5900269-15.0200195c-3.3800049-4.539978-9.2000122-5.9500122-14.0599976-4.0200195   c-0.9299927,0.3699951-1.9899902,0.0599976-2.4899902-0.8099976l-0.0400391-0.0599976   c-0.6099854-1.0499878-0.1199951-2.3699951,1-2.8299561C28.9299927,16.3900146,30.9500122,16,33,16   c2.9000244,0,5.7199707,0.789978,8.1699829,2.25c1.4000244,0.8200073,2.6799927,1.8699951,3.7900391,3.1199951   C44.9699707,21.3900146,44.9899902,21.3999634,45,21.4199829c0.7299805,0.8200073,1.3499756,1.6900024,1.8699951,2.6099854   c0.0200195,0.0499878,0.0499878,0.1000366,0.0800171,0.1500244c0.3399658,0.5999756,0.6400146,1.210022,0.8900146,1.8399658   c0.7699585,1.9100342,1.1499634,3.9300537,1.1499634,5.9400024V32H49z"/>
	<path style="fill:#FE946F;" d="M49,5v27h-0.0100098v-0.0100098c0-2.0200195-0.3800049-4.0499878-1.1499634-5.9700317   c-0.25-0.6299438-0.5500488-1.2399902-0.8900146-1.8399658c-0.0300293-0.0499878-0.0599976-0.1000366-0.0800171-0.1500244   L45,17.0599976V5c0-1.1000366,0.9000244-2,2-2S49,3.8999634,49,5z"/>
	<path style="fill:#FE946F;" d="M46.8699951,24.0299683C46.3499756,23.1099854,45.7299805,22.2399902,45,21.4199829   c-0.0100098-0.0200195-0.0300293-0.0299683-0.039978-0.0499878c-1.1100464-1.25-2.3900146-2.2999878-3.7900391-3.1199951   L38.1500244,6.9599609C37.8599854,5.8900146,38.5,4.789978,39.5599976,4.5100098   c1.0599976-0.2900391,2.1699829,0.3499756,2.4500122,1.4099731L45,17.0599976L46.8699951,24.0299683z"/>
	<path style="fill:#FE946F;" d="M55.9899902,8.9199829L53,20.0799561L49,35V19.539978l3.1199951-11.6599731   c0.289978-1.0599976,1.3900146-1.7000122,2.4500122-1.4100342C55.6400146,6.7600098,56.2700195,7.8499756,55.9899902,8.9199829z"/>
	<polygon style="fill:#c1a8ca;" points="9,32 7,32 7,30 5,30 5,32 3,32 3,34 5,34 5,36 7,36 7,34 9,34  "/>
	<polygon style="fill:#c1a8ca;" points="61,32 61,30 59,30 59,32 57,32 57,34 59,34 59,36 61,36 61,34 63,34 63,32  "/>
	<polygon style="fill:#c1a8ca;" points="13,13 11,13 11,15 9,15 9,17 11,17 11,19 13,19 13,17 15,17 15,15 13,15  "/>
	<polygon style="fill:#c1a8ca;" points="13,47 11,47 11,49 9,49 9,51 11,51 11,53 13,53 13,51 15,51 15,49 13,49  "/>
	<polygon style="fill:#c1a8ca;" points="57,47 55,47 55,49 53,49 53,51 55,51 55,53 57,53 57,51 59,51 59,49 57,49  "/>
	<polygon style="fill:#c1a8ca;" points="31,3 29,3 29,5 27,5 27,7 29,7 29,9 31,9 31,7 33,7 33,5 31,5  "/>
	<polygon style="fill:#c1a8ca;" points="29,57 27,57 27,59 25,59 25,61 27,61 27,63 29,63 29,61 31,61 31,59 29,59  "/>
</g>
<g id="Layer_3">
	<path d="M39,38V26c0-1.6542969-1.3457031-3-3-3H16c-1.6542969,0-3,1.3457031-3,3v12c0,1.6542969,1.3457031,3,3,3h20   C37.6542969,41,39,39.6542969,39,38z M16,25h20c0.5512695,0,1,0.4482422,1,1v3H15v-3C15,25.4482422,15.4487305,25,16,25z M15,38v-7   h22v7c0,0.5517578-0.4487305,1-1,1H16C15.4487305,39,15,38.5517578,15,38z"/>
	<path d="M56.9560547,9.1787109l0.0014648-0.0058594c0.4165039-1.5917969-0.5375977-3.2382813-2.1240234-3.6679688   c-1.5859375-0.4316406-3.2397461,0.5126953-3.6791992,2.1162109L50,11.9348145V5c0-1.6542969-1.3457031-3-3-3s-3,1.3457031-3,3   v4.4786987l-1.0234375-3.8136597c-0.2041016-0.7724609-0.7011719-1.4199219-1.3994141-1.8222656   c-0.6992188-0.4033203-1.5092773-0.5107422-2.2724609-0.2998047c-0.7729492,0.2041016-1.4199219,0.7001953-1.8217773,1.3955078   C37.0805664,5.6347656,36.9746094,6.4462891,37.184082,7.21875l2.4489136,9.1552124   c-4.0927124-1.723877-8.8141479-1.8146973-12.9630737-0.1591187c-0.8164063,0.3349609-1.4458008,1.0019531-1.7270508,1.8300781   c-0.2739258,0.8056641-0.1855469,1.6904297,0.2797852,2.4833984c0.7382813,1.2841797,2.3032227,1.8076172,3.7265625,1.2412109   c4.6103516-1.8300781,9.909668-0.3134766,12.8896484,3.6894531c3.0742188,4.1171875,2.8466797,9.9052734-0.5410156,13.7617188   c-3.0991211,3.5351563-8.0961914,4.7314453-12.4443359,2.9775391c-1.4174805-0.5517578-2.9316406,0.0634766-3.6386719,1.3007813   c-0.4384766,0.7558594-0.5249023,1.6621094-0.2373047,2.484375c0.2905273,0.8320313,0.9311523,1.4941406,1.7529297,1.8154297   C28.7324219,48.5957031,30.8417969,49,33,49v13h17V35.130249L56.9560547,9.1787109z M53.0844727,8.1435547   c0.1459961-0.5351563,0.6914063-0.8535156,1.2236328-0.7089844c0.5419922,0.1474609,0.855957,0.6865234,0.715332,1.2294922   L50,27.4082031V19.671875L53.0844727,8.1435547z M46,5c0-0.5517578,0.4487305-1,1-1s1,0.4482422,1,1v18.7195435   l-0.0097656-0.039856v0.3213501c-0.0574951-0.1055298-0.1166382-0.2110596-0.1782227-0.319397L46,16.9277344V5z    M39.2148438,5.9384766c0.1333008-0.2304688,0.3466797-0.3945313,0.6088867-0.4638672   c0.2524414-0.0712891,0.5209961-0.0351563,0.7548828,0.1005859c0.2324219,0.1337891,0.3974609,0.3476563,0.465332,0.6035156   l3.6069336,13.4384766c-0.0724487-0.0681763-0.1528931-0.1260376-0.2264404-0.1928711   c-0.28302-0.2572632-0.5722656-0.5058594-0.8709106-0.7419434c-0.1287231-0.1017456-0.2598267-0.1994019-0.3913574-0.2971191   c-0.2894897-0.21521-0.5855103-0.4195557-0.8878174-0.6147461c-0.0826416-0.0533447-0.1589966-0.1161499-0.2426147-0.1679688   L39.1152344,6.6982422C39.0454102,6.4404297,39.0805664,6.1708984,39.2148438,5.9384766z M35,60V47h-2   c-1.9038086,0-3.7646484-0.3564453-5.5351563-1.0615234c-0.2832031-0.1103516-0.5014648-0.3349609-0.5996094-0.6152344   c-0.0961914-0.2744141-0.0678711-0.5664063,0.0830078-0.8271484c0.230957-0.4042969,0.6928711-0.6220703,1.1674805-0.4394531   c5.1245117,2.0712891,11.0273438,0.6572266,14.6855469-3.5166016c4.0068359-4.5615234,4.2763672-11.4072266,0.6411133-16.2773438   c-3.5205078-4.7265625-9.7841797-6.5175781-15.2319336-4.3515625c-0.4887695,0.1943359-1.015625,0.0341797-1.2958984-0.4433594   c-0.1396484-0.2402344-0.1669922-0.5175781-0.0776367-0.7802734c0.0952148-0.2802734,0.3110352-0.5068359,0.5834961-0.6191406   c4.2651367-1.7011719,9.2631836-1.3271484,13.2441406,1.0439453c1.2890625,0.7558594,2.4575195,1.7109375,3.4755859,2.8408203   l0.112793,0.1318359c0.3322144,0.3731079,0.6435547,0.7631836,0.9332275,1.1665649   c0.1153564,0.1607056,0.2109985,0.3322144,0.3190918,0.4970093c0.1655273,0.2523804,0.3386841,0.5008545,0.4865723,0.7619019   c0.0296021,0.059082,0.0606689,0.1171265,0.0882568,0.161438c0.1681519,0.2973022,0.3201294,0.5863037,0.4581299,0.8716431   c0.1378784,0.2851563,0.2615967,0.5663452,0.3734131,0.8480835C47.6274414,28.1767578,47.9902344,30.0605469,47.9902344,32v1   h0.0003662L48,60H35z"/>
</g>
</svg>
