<?xml version="1.0" encoding="iso-8859-1"?>
<!-- Generator: Adobe Illustrator 22.0.0, SVG Export Plug-In . SVG Version: 6.00 Build 0)  -->
<svg xmlns="http://www.w3.org/2000/svg" xmlns:xlink="http://www.w3.org/1999/xlink" version="1.1" x="0px" y="0px" viewBox="0 0 64 64" style="enable-background:new 0 0 64 64;" xml:space="preserve" width="512" height="512">
<g id="color">
	<path style="fill:#25b47d;" d="M36,40H16c-1.1045694,0-2-0.8954315-2-2V26c0-1.1045704,0.8954306-2,2-2h20   c1.1045685,0,2,0.8954296,2,2v12C38,39.1045685,37.1045685,40,36,40z"/>
	<path style="fill:#FFB398;" d="M49,32v29H34V48h-1c-2.0499878,0-4.039978-0.3900146-5.9000244-1.1300049   C25.9500122,46.4199829,25.460022,45.0700073,26.0800171,44c0.3599854-0.6300049,1.0199585-1.0100098,1.7099609-1.0100098   c0.2300415,0,0.4700317,0.0499878,0.7000122,0.1400146c4.5300293,1.8299561,10.0100098,0.7999878,13.5599976-3.25   c3.6799927-4.1900024,3.9199829-10.5599976,0.5900269-15.0200195c-3.3800049-4.539978-9.2000122-5.9500122-14.0599976-4.0200195   c-0.9299927,0.3699951-1.9899902,0.0599976-2.4899902-0.8099976l-0.0400391-0.0599976   c-0.6099854-1.0499878-0.1199951-2.3699951,1-2.8299561C28.9299927,16.3900146,30.9500122,16,33,16   c2.9000244,0,5.7199707,0.789978,8.1699829,2.25c1.4000244,0.8200073,2.6799927,1.8699951,3.7900391,3.1199951   C44.9699707,21.3900146,44.9899902,21.3999634,45,21.4199829c0.7299805,0.8200073,1.3499756,1.6900024,1.8699951,2.6099854   c0.0200195,0.0499878,0.0499878,0.1000366,0.0800171,0.1500244c0.3399658,0.5999756,0.6400146,1.210022,0.8900146,1.8399658   c0.7699585,1.9100342,1.1499634,3.9300537,1.1499634,5.9400024V32H49z"/>
	<path style="fill:#FE946F;" d="M49,5v27h-0.0100098v-0.0100098c0-2.0200195-0.3800049-4.0499878-1.1499634-5.9700317   c-0.25-0.6299438-0.5500488-1.2399902-0.8900146-1.8399658c-0.0300293-0.0499878-0.0599976-0.1000366-0.0800171-0.1500244   L45,17.0599976V5c0-1.1000366,0.9000244-2,2-2S49,3.8999634,49,5z"/>
	<path style="fill:#FE946F;" d="M46.8699951,24.0299683C46.3499756,23.1099854,45.7299805,22.2399902,45,21.4199829   c-0.0100098-0.0200195-0.0300293-0.0299683-0.039978-0.0499878c-1.1100464-1.25-2.3900146-2.2999878-3.7900391-3.1199951   L38.1500244,6.9599609C37.8599854,5.8900146,38.5,4.789978,39.5599976,4.5100098   c1.0599976-0.2900391,2.1699829,0.3499756,2.4500122,1.4099731L45,17.0599976L46.8699951,24.0299683z"/>
	<path style="fill:#FE946F;" d="M55.9899902,8.9199829L53,20.0799561L49,35V19.539978l3.1199951-11.6599731   c0.289978-1.0599976,1.3900146-1.7000122,2.4500122-1.4100342C55.6400146,6.7600098,56.2700195,7.8499756,55.9899902,8.9199829z"/>
	<polygon style="fill:#c1a8ca;" points="9,32 7,32 7,30 5,30 5,32 3,32 3,34 5,34 5,36 7,36 7,34 9,34  "/>
	<polygon style="fill:#c1a8ca;" points="61,32 61,30 59,30 59,32 57,32 57,34 59,34 59,36 61,36 61,34 63,34 63,32  "/>
	<polygon style="fill:#c1a8ca;" points="13,13 11,13 11,15 9,15 9,17 11,17 11,19 13,19 13,17 15,17 15,15 13,15  "/>
	<polygon style="fill:#c1a8ca;" points="13,47 11,47 11,49 9,49 9,51 11,51 11,53 13,53 13,51 15,51 15,49 13,49  "/>
	<polygon style="fill:#c1a8ca;" points="57,47 55,47 55,49 53,49 53,51 55,51 55,53 57,53 57,51 59,51 59,49 57,49  "/>
	<polygon style="fill:#c1a8ca;" points="31,3 29,3 29,5 27,5 27,7 29,7 29,9 31,9 31,7 33,7 33,5 31,5  "/>
	<polygon style="fill:#c1a8ca;" points="29,57 27,57 27,59 25,59 25,61 27,61 27,63 29,63 29,61 31,61 31,59 29,59  "/>
</g>
<g id="Layer_3">
	<path style="fill:#fefefe;" d="M39,38V26c0-1.6542969-1.3457031-3-3-3H16c-1.6542969,0-3,1.3457031-3,3v12c0,1.6542969,1.3457031,3,3,3h20   C37.6542969,41,39,39.6542969,39,38z M16,25h20c0.5512695,0,1,0.4482422,1,1v3H15v-3C15,25.4482422,15.4487305,25,16,25z M15,38v-7   h22v7c0,0.5517578-0.4487305,1-1,1H16C15.4487305,39,15,38.5517578,15,38z"/>
</g>
</svg>
