
<svg width="72px" height="96px" viewBox="0 0 72 96" version="1.1" xmlns="http://www.w3.org/2000/svg" xmlns:xlink="http://www.w3.org/1999/xlink">
    <!-- Generator: Sketch 46.1 (44463) - http://www.bohemiancoding.com/sketch -->
    <desc>Created with Sketch.</desc>
    <defs></defs>
    <g id="Page-1" stroke="none" stroke-width="1" fill="none" fill-rule="evenodd">
        <g id="Desktop-HD" transform="translate(-761.000000, -2648.000000)">
            <g id="Group-4" transform="translate(-368.000000, -259.000000)">
                <g id="Pink-Area-1-Copy" transform="translate(1118.000000, 2857.000000)">
                    <g id="Second-Purple" transform="translate(-4.000000, 50.000000)">
                        <path d="M15,12 L75,12 L75,92.0050156 C75,94.2113846 73.2043192,96 70.9934444,96 L15,96 L15,12 Z" id="Rectangle-3" fill="#C0A8CA"></path>
                        <path d="M23,17.8425815 C23,10.6616661 28.8115907,4.92484465 35.9995012,5.01162234 C35.9995012,5.01162234 62.4778271,5.48687639 70.7529297,4.840384 C79.0280323,4.19389161 84.4181085,0.366147802 84.4181085,0.366147802 C85.8440478,-0.476508301 87,0.185102824 87,1.83978423 L87,68.8431808 C87,79.3350464 78.4957683,87.7682346 67.9983031,87.6947932 C67.9983031,87.6947932 34.4755859,87.3403826 30.487793,87.840384 C26.5,88.3403854 25.8212136,88.8509935 25.8212136,88.8509935 C24.2631004,89.3974196 23,88.5052384 23,86.8401574 L23,17.8425815 Z" id="Rectangle-2" fill="#24B47E"></path>
                        <g id="Content" transform="translate(33.000000, 21.000000)" fill="#FFFFFF">
                            <rect id="Rectangle-5" x="12" y="0" width="29" height="3" rx="1.5"></rect>
                            <path d="M3.18864006,6.30984896 L0.443247087,3.56445598 C-0.144389971,2.97681892 -0.14997419,2.02965523 0.439896243,1.43978479 C1.02568268,0.853998357 1.97312686,0.851695066 2.56456743,1.44313564 L6.09339965,4.97196786 C6.14947702,5.02804523 6.20025386,5.08739666 6.24571852,5.14939923 C6.28646208,5.18244077 6.32591617,5.21794644 6.36388955,5.25591982 C6.94967598,5.84170626 6.95197928,6.78915044 6.3605387,7.38059101 L2.83170648,10.9094232 C2.24406943,11.4970603 1.29690573,11.5026445 0.707035298,10.9127741 C0.12124886,10.3269876 0.118945569,9.37954345 0.710386141,8.78810288 L3.18864006,6.30984896 Z" id="Arrow"></path>
                            <path d="M3.18864006,43.309849 L0.443247087,40.564456 C-0.144389971,39.9768189 -0.14997419,39.0296552 0.439896243,38.4397848 C1.02568268,37.8539984 1.97312686,37.8516951 2.56456743,38.4431356 L6.09339965,41.9719679 C6.14947702,42.0280452 6.20025386,42.0873967 6.24571852,42.1493992 C6.28646208,42.1824408 6.32591617,42.2179464 6.36388955,42.2559198 C6.94967598,42.8417063 6.95197928,43.7891504 6.3605387,44.380591 L2.83170648,47.9094232 C2.24406943,48.4970603 1.29690573,48.5026445 0.707035298,47.9127741 C0.12124886,47.3269876 0.118945569,46.3795435 0.710386141,45.7881029 L3.18864006,43.309849 Z" id="Arrow-Copy"></path>
                            <rect id="Rectangle-5-Copy" x="12" y="10" width="29" height="3" rx="1.5"></rect>
                            <rect id="Rectangle-5-Copy-2" x="12" y="20" width="29" height="3" rx="1.5"></rect>
                            <rect id="Rectangle-5-Copy-3" x="12" y="37" width="29" height="3" rx="1.5"></rect>
                            <rect id="Rectangle-5-Copy-5" x="12" y="47" width="29" height="3" rx="1.5"></rect>
                        </g>
                    </g>
                </g>
            </g>
        </g>
    </g>
</svg>
