
<svg width="50px" height="50px" viewBox="0 0 50 50" version="1.1" xmlns="http://www.w3.org/2000/svg" xmlns:xlink="http://www.w3.org/1999/xlink">
    <!-- Generator: Sketch 43.2 (39069) - http://www.bohemiancoding.com/sketch -->
    <desc>Created with Sketch.</desc>
    <defs></defs>
    <g id="Page-1" stroke="none" stroke-width="1" fill="none" fill-rule="evenodd">
        <g id="Desktop-HD" transform="translate(-218.000000, -3274.000000)">
            <g id="Btn_icon-/-Social-/-Twitter" transform="translate(218.000000, 3274.000000)">
                <g>
                    <rect id="Base_buttons" fill="#55ACEE" x="0" y="0" width="50" height="50" rx="3"></rect>
                    <path d="M31.4310176,22.4909087 C31.3689023,23.6761396 31.0245891,24.8465812 30.4970738,25.9130973 C28.9392569,29.0007523 25.9444159,30.7114207 22.5016021,30.5309905 C20.8836678,30.4461981 19.3091956,29.892062 18,28.9556663 C18.2247723,28.986311 18.4683578,29.0179416 18.6941161,29.0297731 C20.0486658,29.1007621 21.3704388,28.7172766 22.4673596,27.9447098 C21.2078618,27.8598375 20.1234385,26.9540865 19.7914628,25.7293372 C19.9776228,25.7768232 20.1647688,25.805496 20.3529007,25.8153555 C20.6162853,25.8291589 20.8816419,25.805336 21.1489704,25.7438866 C19.7715837,25.3887279 18.8009455,24.1116429 18.9125187,22.7026256 L18.9144906,22.6649992 C19.3165493,22.9124486 19.7611641,23.0678039 20.2493211,23.1122519 C19.4323063,22.5034882 18.9914753,21.556007 19.043731,20.5589079 C19.0713378,20.0321386 19.230637,19.512271 19.5176846,19.0745578 C20.9439432,21.0169262 23.1235553,22.2630465 25.5059287,22.5199554 C25.4613207,22.2912393 25.454339,22.0644951 25.4661705,21.8387368 C25.5529347,20.1831761 26.9586742,18.9174426 28.6142349,19.0042068 C29.423202,19.046603 30.1956088,19.4266506 30.7284538,20.0582514 C31.4126304,19.9620536 32.0650963,19.7510047 32.6660524,19.4429319 C32.4047996,20.1083753 31.9029192,20.6857484 31.2633508,21.0106624 C31.8683307,20.9857735 32.4416,20.8460335 33,20.6300548 C32.5733724,21.2113718 32.0378094,21.7115202 31.4329095,22.0948457 C31.444821,22.227524 31.4379193,22.3592164 31.4310176,22.4909087 L31.4310176,22.4909087 Z" id="icon" fill="#FFFFFF"></path>
                </g>
            </g>
        </g>
    </g>
</svg>
